<svg width="184" height="28" viewBox="0 0 184 28" fill="none" xmlns="http://www.w3.org/2000/svg">
<g clip-path="url(#clip0_99_299)">
<path d="M42.6299 7.83008H55.3675C56.8124 7.83008 57.9681 8.4574 58.8344 9.71206C59.0713 10.1482 59.2024 10.6338 59.2173 11.1299V11.3109C59.2173 12.2778 58.747 13.1287 57.8064 13.8636C58.7486 14.6603 59.2189 15.4508 59.2173 16.2352V16.7805C59.2173 17.7551 58.6643 18.6246 57.5581 19.3888C56.8124 19.7508 56.271 19.9318 55.9337 19.9318C55.9337 19.9713 55.8896 19.9898 55.7991 19.9898H42.6299C42.5928 19.9898 42.5742 19.9713 42.5742 19.9318V7.89505C42.582 7.85174 42.6005 7.83008 42.6299 7.83008ZM46.4403 10.7308V12.6012H54.307C54.5158 12.6153 54.7236 12.5624 54.9002 12.4501C55.0768 12.3378 55.2129 12.172 55.2886 11.9769C55.3093 11.8688 55.324 11.7595 55.3327 11.6497C55.3327 11.2019 55.0635 10.8979 54.5205 10.7215L46.4403 10.7308ZM46.4403 15.2559V17.1379H54.307C54.5169 17.1514 54.7256 17.0971 54.9023 16.983C55.079 16.869 55.2145 16.7012 55.2886 16.5044C55.3188 16.321 55.3327 16.2166 55.3327 16.1864C55.3329 16.0017 55.2769 15.8212 55.172 15.669C55.0671 15.5169 54.9184 15.4003 54.7456 15.3348C54.6062 15.2792 54.457 15.2524 54.307 15.2559H46.4403Z" fill="white"/>
<path d="M63.1475 7.83008H75.9106C76.4832 7.82988 77.0495 7.94953 77.573 8.18133C78.0966 8.41313 78.5658 8.75196 78.9505 9.17601C79.45 9.71803 79.7318 10.4254 79.7419 11.1624V13.3623C79.7419 14.504 79.1168 15.4493 77.8668 16.198L77.3818 16.4115L79.7419 19.9852L79.6862 20.0084H75.1007C74.9893 19.8785 74.2406 18.763 72.8544 16.6622H66.9718V19.9504C66.973 19.9583 66.9723 19.9663 66.9698 19.9739C66.9673 19.9815 66.963 19.9884 66.9574 19.994C66.9517 19.9997 66.9449 20.0039 66.9373 20.0064C66.9297 20.0089 66.9217 20.0096 66.9138 20.0084H63.1475C63.1104 20.0084 63.0918 19.9898 63.0918 19.9504V7.89505C63.1026 7.85174 63.1212 7.83008 63.1475 7.83008ZM66.9718 10.7308V13.7707H74.321C75.1054 13.7707 75.602 13.425 75.8131 12.7381C75.8423 12.5851 75.8571 12.4297 75.8572 12.274C75.8572 11.5376 75.5525 11.0495 74.9429 10.8097C74.7557 10.7567 74.562 10.7301 74.3674 10.7308H66.9718Z" fill="white"/>
<path d="M90.7617 7.83008H94.6115C94.6858 7.8966 95.4802 9.22319 96.9947 11.8098C100.05 17.0203 101.642 19.7423 101.77 19.9759V19.9991H97.3312C97.2245 19.8924 95.8507 17.5718 93.2099 13.0374C92.885 12.4921 92.7156 12.2206 92.7017 12.2206C89.7267 17.2933 88.1983 19.887 88.1163 20.0014H83.6445V19.9434C88.2238 12.137 90.5962 8.09926 90.7617 7.83008Z" fill="white"/>
<path d="M105.772 7.83008H118.61C119.755 7.83008 120.794 8.329 121.726 9.32684C122.116 9.83582 122.337 10.4542 122.358 11.0951V19.9411C122.358 19.9806 122.339 19.9991 122.302 19.9991H118.533C118.525 20.0003 118.517 19.9996 118.51 19.9971C118.502 19.9946 118.495 19.9904 118.49 19.9847C118.484 19.9791 118.48 19.9722 118.477 19.9646C118.475 19.9571 118.474 19.949 118.475 19.9411V12.9075C118.475 11.8354 118.017 11.1392 117.099 10.819C116.903 10.7689 116.702 10.7424 116.5 10.7401H109.59V19.9597C109.59 19.9991 109.571 20.0177 109.534 20.0177H105.772C105.735 20.0177 105.717 19.9991 105.717 19.9597V7.89505C105.725 7.85174 105.743 7.83008 105.772 7.83008Z" fill="#EC1C24"/>
<path d="M126.319 7.83008H139.157C140.302 7.83008 141.34 8.329 142.273 9.32684C142.665 9.83515 142.886 10.4538 142.907 11.0951V19.9411C142.907 19.9806 142.888 19.9991 142.851 19.9991H139.078C139.041 19.9991 139.022 19.9806 139.022 19.9411V12.9075C139.022 11.8354 138.563 11.1392 137.644 10.819C137.448 10.7689 137.247 10.7424 137.045 10.7401H130.137V19.9597C130.138 19.9676 130.137 19.9756 130.135 19.9832C130.132 19.9908 130.128 19.9977 130.122 20.0033C130.117 20.0089 130.11 20.0132 130.102 20.0157C130.095 20.0182 130.087 20.0189 130.079 20.0177H126.319C126.282 20.0177 126.264 19.9991 126.264 19.9597V7.89505C126.265 7.85174 126.284 7.83008 126.319 7.83008Z" fill="#EC1C24"/>
<path d="M150.57 7.82933H159.57C160.206 7.81382 160.837 7.94838 161.411 8.22213C161.986 8.49588 162.488 8.90111 162.876 9.40499C163.259 9.9156 163.469 10.5351 163.475 11.1733V16.6846C163.475 17.9222 162.787 18.8938 161.41 19.5992C160.834 19.8702 160.206 20.0097 159.57 20.0077H150.682C150.047 20.014 149.418 19.8716 148.848 19.592C148.277 19.3124 147.78 18.9032 147.396 18.3972C147.037 17.9099 146.84 17.3223 146.832 16.7171V11.1617C146.832 9.86679 147.592 8.86121 149.113 8.14493C149.58 7.96466 150.071 7.85818 150.57 7.82933ZM150.705 12.7025V15.1066C150.705 16.0905 151.213 16.7449 152.23 17.0698C152.381 17.1084 152.537 17.1272 152.694 17.1255H157.662C158.549 17.1255 159.167 16.6529 159.519 15.7076C159.579 15.5332 159.606 15.3491 159.6 15.1646V12.8441C159.6 11.8068 159.119 11.1153 158.166 10.7556C157.921 10.7278 157.676 10.7131 157.43 10.7115H152.682C151.769 10.7115 151.137 11.1802 150.784 12.1177C150.729 12.3117 150.703 12.5126 150.705 12.7141V12.7025Z" fill="white"/>
<path d="M167.413 7.83009H180.176C180.748 7.82903 181.313 7.94739 181.836 8.17756C182.359 8.40774 182.829 8.74466 183.214 9.16673C183.713 9.70875 183.995 10.4161 184.005 11.1531V13.353C184.005 14.4948 183.38 15.44 182.13 16.1888L181.645 16.4023L184.005 19.9759L183.949 19.9991H179.359C179.248 19.8692 178.499 18.7538 177.113 16.6529H171.23V19.9411C171.232 19.949 171.231 19.9571 171.228 19.9646C171.226 19.9722 171.222 19.9791 171.216 19.9847C171.21 19.9904 171.204 19.9946 171.196 19.9971C171.188 19.9996 171.18 20.0003 171.172 19.9991H167.413C167.376 19.9991 167.357 19.9806 167.357 19.9411V7.89506C167.365 7.85174 167.384 7.83009 167.413 7.83009ZM171.23 10.7308V13.7707H178.58C179.364 13.7707 179.861 13.425 180.072 12.7381C180.101 12.5851 180.116 12.4297 180.116 12.274C180.116 11.5376 179.811 11.0495 179.202 10.8097C179.014 10.7567 178.821 10.7302 178.626 10.7308H171.23Z" fill="white"/>
<path d="M42.5865 22.3096H46.3783C46.382 22.3096 46.3855 22.311 46.3881 22.3136C46.3908 22.3163 46.3922 22.3198 46.3922 22.3235V22.9988C46.3927 23.0007 46.3926 23.0027 46.3921 23.0046C46.3915 23.0065 46.3905 23.0082 46.3891 23.0096C46.3877 23.011 46.386 23.012 46.3841 23.0126C46.3822 23.0131 46.3802 23.0131 46.3783 23.0127H44.9303V25.2544C44.9307 25.2563 44.9307 25.2583 44.9301 25.2602C44.9296 25.2621 44.9286 25.2638 44.9272 25.2652C44.9258 25.2666 44.924 25.2676 44.9222 25.2681C44.9203 25.2687 44.9183 25.2687 44.9163 25.2683H44.0531C44.0512 25.2687 44.0492 25.2687 44.0473 25.2681C44.0454 25.2676 44.0437 25.2666 44.0423 25.2652C44.0409 25.2638 44.0399 25.2621 44.0393 25.2602C44.0388 25.2583 44.0387 25.2563 44.0392 25.2544V23.0127H42.5865C42.5846 23.0131 42.5826 23.0131 42.5807 23.0126C42.5788 23.012 42.5771 23.011 42.5757 23.0096C42.5743 23.0082 42.5733 23.0065 42.5727 23.0046C42.5722 23.0027 42.5721 23.0007 42.5726 22.9988V22.3235C42.5726 22.3235 42.5795 22.3096 42.5865 22.3096Z" fill="white"/>
<path d="M51.0801 22.3096H51.9434C51.9434 22.3096 51.955 22.3096 51.955 22.3235V23.4675H53.9947V22.3235C53.9947 22.3235 53.9947 22.3096 54.0087 22.3096H54.8742C54.8775 22.3101 54.8805 22.3118 54.8826 22.3144C54.8847 22.3169 54.8859 22.3202 54.8858 22.3235V25.2544C54.8858 25.2544 54.8858 25.2683 54.8742 25.2683H54.0087C54.0067 25.2687 54.0047 25.2687 54.0028 25.2681C54.001 25.2676 53.9992 25.2666 53.9978 25.2652C53.9964 25.2638 53.9954 25.2621 53.9949 25.2602C53.9943 25.2583 53.9943 25.2563 53.9947 25.2544V24.1103H51.955V25.2544C51.955 25.2544 51.955 25.2683 51.9434 25.2683H51.0801C51.0801 25.2683 51.0685 25.2683 51.0685 25.2544V22.3235C51.0685 22.3235 51.0662 22.3096 51.0801 22.3096Z" fill="white"/>
<path d="M59.567 22.3096H63.3588C63.3625 22.3096 63.366 22.311 63.3686 22.3136C63.3712 22.3163 63.3727 22.3198 63.3727 22.3235V22.9988C63.3731 23.0007 63.3731 23.0027 63.3725 23.0046C63.372 23.0065 63.371 23.0082 63.3696 23.0096C63.3682 23.011 63.3665 23.012 63.3646 23.0126C63.3627 23.0131 63.3607 23.0131 63.3588 23.0127H59.567C59.565 23.0131 59.563 23.0131 59.5611 23.0126C59.5592 23.012 59.5575 23.011 59.5561 23.0096C59.5547 23.0082 59.5537 23.0065 59.5532 23.0046C59.5526 23.0027 59.5526 23.0007 59.553 22.9988V22.3235C59.553 22.3235 59.56 22.3096 59.567 22.3096ZM59.567 23.4699H63.3588C63.3588 23.4699 63.3727 23.4699 63.3727 23.4838V24.0987C63.3731 24.1006 63.3731 24.1026 63.3725 24.1045C63.372 24.1064 63.371 24.1082 63.3696 24.1096C63.3682 24.1109 63.3665 24.112 63.3646 24.1125C63.3627 24.113 63.3607 24.1131 63.3588 24.1126H59.567C59.565 24.1131 59.563 24.113 59.5611 24.1125C59.5592 24.112 59.5575 24.1109 59.5561 24.1096C59.5547 24.1082 59.5537 24.1064 59.5532 24.1045C59.5526 24.1026 59.5526 24.1006 59.553 24.0987V23.4838C59.553 23.4838 59.56 23.4675 59.567 23.4675V23.4699ZM59.567 24.5698H63.3588C63.3588 24.5698 63.3727 24.5698 63.3727 24.5814V25.2567C63.3731 25.2586 63.3731 25.2606 63.3725 25.2625C63.372 25.2644 63.371 25.2661 63.3696 25.2675C63.3682 25.2689 63.3665 25.2699 63.3646 25.2705C63.3627 25.271 63.3607 25.2711 63.3588 25.2706H59.567C59.565 25.2711 59.563 25.271 59.5611 25.2705C59.5592 25.2699 59.5575 25.2689 59.5561 25.2675C59.5547 25.2661 59.5537 25.2644 59.5532 25.2625C59.5526 25.2606 59.5526 25.2586 59.553 25.2567V24.5814C59.553 24.5777 59.5545 24.5742 59.5571 24.5716C59.5597 24.5689 59.5633 24.5675 59.567 24.5675V24.5698Z" fill="white"/>
<path d="M76.6806 22.3096H77.5647C77.5817 22.325 77.7643 22.6476 78.1123 23.2772C78.8132 24.5443 79.1783 25.2064 79.2076 25.2636H78.1866C78.1611 25.2381 77.8478 24.6742 77.2398 23.5696C77.2052 23.5016 77.1664 23.4357 77.1238 23.3724C76.4415 24.61 76.0911 25.2404 76.0726 25.2636H75.0469V25.2497C76.0958 23.3546 76.6403 22.3745 76.6806 22.3096Z" fill="white"/>
<path d="M83.8883 22.3096H86.8168C86.9495 22.31 87.0805 22.3392 87.2007 22.3953C87.3209 22.4514 87.4275 22.533 87.513 22.6344C87.6282 22.7691 87.6922 22.94 87.694 23.1171V23.6532C87.6911 23.797 87.6498 23.9374 87.5743 24.0598C87.4988 24.1823 87.3919 24.2822 87.2647 24.3493L87.1533 24.4027L87.694 25.2706H86.6405C86.6149 25.2404 86.4432 24.9689 86.1253 24.4584H84.7747V25.2567V25.2706H83.9115C83.9115 25.2706 83.8999 25.2706 83.8999 25.2567V22.3235C83.8999 22.3235 83.8813 22.3096 83.8883 22.3096ZM84.7631 23.0057V23.7437H86.4502C86.5281 23.7506 86.6059 23.7291 86.669 23.683C86.7322 23.6369 86.7765 23.5694 86.7936 23.4931C86.797 23.456 86.797 23.4187 86.7936 23.3817C86.8013 23.3076 86.7852 23.2331 86.7476 23.1689C86.7101 23.1046 86.653 23.054 86.5848 23.0243C86.5417 23.0125 86.4972 23.0062 86.4525 23.0057H84.7631Z" fill="white"/>
<path d="M92.3873 22.3096H96.1814C96.1847 22.3101 96.1876 22.3118 96.1898 22.3144C96.1919 22.3169 96.193 22.3202 96.193 22.3235V22.9988C96.193 22.9988 96.193 23.0127 96.1814 23.0127H94.731V25.2544C94.731 25.2544 94.731 25.2683 94.7194 25.2683H93.8492C93.8473 25.2687 93.8453 25.2687 93.8434 25.2681C93.8415 25.2676 93.8398 25.2666 93.8384 25.2652C93.837 25.2638 93.836 25.2621 93.8354 25.2602C93.8349 25.2583 93.8349 25.2563 93.8353 25.2544V23.0127H92.3873C92.3854 23.0131 92.3833 23.0131 92.3815 23.0126C92.3796 23.012 92.3778 23.011 92.3764 23.0096C92.375 23.0082 92.374 23.0065 92.3735 23.0046C92.373 23.0027 92.3729 23.0007 92.3733 22.9988V22.3235L92.3873 22.3096Z" fill="white"/>
<path d="M108.718 22.3097H110.783C110.931 22.3071 111.078 22.3406 111.21 22.4073C111.342 22.4741 111.456 22.572 111.542 22.6926C111.631 22.8182 111.679 22.9681 111.679 23.1219V24.4609C111.677 24.6111 111.632 24.7576 111.55 24.8834C111.468 25.0091 111.352 25.1089 111.215 25.171C111.084 25.2357 110.939 25.269 110.793 25.2684H108.753C108.605 25.2691 108.46 25.234 108.329 25.1661C108.198 25.0982 108.085 24.9995 108.001 24.8786C107.917 24.7587 107.872 24.6163 107.871 24.4702V23.1173C107.876 22.957 107.928 22.8017 108.021 22.6711C108.113 22.5405 108.243 22.4406 108.393 22.384C108.497 22.3416 108.606 22.3165 108.718 22.3097ZM108.751 23.4955V24.0733C108.747 24.1787 108.78 24.2821 108.843 24.3665C108.906 24.4508 108.997 24.5111 109.099 24.5375C109.133 24.5466 109.168 24.5513 109.203 24.5514H110.342C110.442 24.5512 110.539 24.5172 110.617 24.4548C110.695 24.3924 110.75 24.3053 110.772 24.2079C110.784 24.165 110.79 24.1203 110.788 24.0757V23.5118C110.797 23.4034 110.77 23.2951 110.711 23.2039C110.651 23.1128 110.564 23.0439 110.461 23.0082C110.404 23.0041 110.348 23.0041 110.291 23.0082H109.203C109.103 23.0072 109.005 23.0404 108.926 23.1025C108.847 23.1645 108.792 23.2516 108.769 23.3493C108.756 23.3968 108.749 23.4461 108.751 23.4955Z" fill="white"/>
<path d="M116.368 22.3096H120.162C120.163 22.3117 120.164 22.3141 120.164 22.3165C120.164 22.319 120.163 22.3214 120.162 22.3235V22.9988V23.0127H116.368C116.366 23.0131 116.364 23.0131 116.362 23.0126C116.36 23.012 116.358 23.011 116.357 23.0096C116.356 23.0082 116.355 23.0065 116.354 23.0046C116.353 23.0027 116.353 23.0007 116.354 22.9988V22.3235C116.354 22.3235 116.361 22.3096 116.368 22.3096ZM116.368 23.4699H120.162C120.163 23.472 120.164 23.4744 120.164 23.4768C120.164 23.4793 120.163 23.4817 120.162 23.4838V24.0987V24.1126H117.243V25.2567C117.243 25.2567 117.243 25.2706 117.231 25.2706H116.368C116.366 25.2711 116.364 25.271 116.362 25.2705C116.36 25.2699 116.358 25.2689 116.357 25.2675C116.356 25.2661 116.355 25.2644 116.354 25.2625C116.353 25.2606 116.353 25.2586 116.354 25.2567V23.4838C116.354 23.4838 116.361 23.4675 116.368 23.4675V23.4699Z" fill="white"/>
<path d="M131.855 22.3096H134.776C134.938 22.3091 135.097 22.3518 135.237 22.4334C135.377 22.515 135.493 22.6325 135.572 22.7737C135.628 22.8807 135.658 22.999 135.66 23.1195V23.1635C135.658 23.285 135.628 23.4043 135.572 23.5121C135.516 23.62 135.436 23.7135 135.338 23.7855C135.43 23.8533 135.506 23.94 135.561 24.0396C135.617 24.1392 135.651 24.2496 135.66 24.3633V24.4955C135.654 24.6243 135.616 24.7494 135.549 24.8599C135.483 24.9704 135.39 25.0629 135.28 25.1291C135.166 25.1985 135.039 25.2436 134.906 25.2613C134.906 25.2613 134.906 25.2753 134.876 25.2753H131.859C131.859 25.2753 131.848 25.2753 131.848 25.2613V22.3235C131.848 22.3235 131.848 22.3096 131.855 22.3096ZM132.732 23.0057V23.4699H134.535C134.585 23.473 134.634 23.46 134.676 23.4328C134.718 23.4057 134.75 23.3658 134.767 23.319C134.769 23.292 134.769 23.2648 134.767 23.2378C134.768 23.1835 134.75 23.1306 134.716 23.0882C134.682 23.0458 134.634 23.0166 134.581 23.0057H132.732ZM132.732 24.1034V24.5675H134.535C134.585 24.5704 134.635 24.5571 134.676 24.5295C134.718 24.5019 134.75 24.4615 134.767 24.4143C134.769 24.3881 134.769 24.3617 134.767 24.3354C134.766 24.2918 134.753 24.2493 134.729 24.2128C134.706 24.1763 134.672 24.1472 134.632 24.1289C134.601 24.1161 134.567 24.1098 134.533 24.1103L132.732 24.1034Z" fill="white"/>
<path d="M140.343 22.3096H143.269C143.401 22.3109 143.532 22.3406 143.652 22.3966C143.772 22.4526 143.879 22.5337 143.965 22.6344C144.08 22.7691 144.144 22.94 144.146 23.1171V23.6532C144.143 23.7973 144.102 23.938 144.026 24.0604C143.95 24.1829 143.842 24.2827 143.714 24.3493L143.603 24.4027L144.146 25.2706H144.132H143.081C143.055 25.2404 142.884 24.9689 142.566 24.4584H141.215V25.2567C141.216 25.2586 141.216 25.2606 141.215 25.2625C141.215 25.2644 141.214 25.2661 141.212 25.2675C141.211 25.2689 141.209 25.2699 141.207 25.2705C141.205 25.271 141.203 25.2711 141.201 25.2706H140.34C140.338 25.2711 140.336 25.271 140.335 25.2705C140.333 25.2699 140.331 25.2689 140.33 25.2675C140.328 25.2661 140.327 25.2644 140.327 25.2625C140.326 25.2606 140.326 25.2586 140.326 25.2567V22.3235C140.326 22.3235 140.336 22.3096 140.343 22.3096ZM141.218 23.0057V23.7437H142.905C142.982 23.7501 143.059 23.7282 143.122 23.6822C143.185 23.6361 143.229 23.5689 143.246 23.4931C143.253 23.4564 143.257 23.4191 143.257 23.3817C143.264 23.3074 143.248 23.2328 143.21 23.1686C143.172 23.1044 143.115 23.0539 143.046 23.0243C143.003 23.0121 142.959 23.0059 142.914 23.0057H141.218Z" fill="white"/>
<path d="M150.456 22.3096H151.34C151.357 22.325 151.54 22.6476 151.888 23.2772C152.589 24.5443 152.954 25.2064 152.983 25.2636H151.962C151.939 25.2389 151.624 24.6742 151.018 23.5696C150.983 23.5012 150.943 23.4353 150.899 23.3724C150.217 24.61 149.867 25.2404 149.848 25.2636H148.822V25.2497C149.874 23.3546 150.419 22.3745 150.456 22.3096Z" fill="white"/>
<path d="M157.663 22.3096H158.522C158.526 22.3096 158.529 22.311 158.532 22.3136C158.534 22.3163 158.536 22.3198 158.536 22.3235V23.5L160.262 22.3096H161.457C161.383 22.373 160.896 22.711 159.995 23.3237L161.457 25.2428H160.32C160.32 25.2428 159.949 24.7647 159.246 23.8504L158.536 24.3331V25.2451C158.536 25.247 158.536 25.249 158.536 25.2509C158.535 25.2528 158.534 25.2545 158.533 25.2559C158.531 25.2573 158.53 25.2583 158.528 25.2589C158.526 25.2594 158.524 25.2595 158.522 25.259H157.663C157.663 25.259 157.663 25.259 157.663 25.2451V22.3235C157.663 22.3235 157.656 22.3096 157.663 22.3096Z" fill="white"/>
<path d="M166.142 22.3096H167.006C167.009 22.3096 167.013 22.311 167.016 22.3136C167.018 22.3163 167.02 22.3198 167.02 22.3235V25.2544C167.02 25.2563 167.02 25.2583 167.019 25.2602C167.019 25.2621 167.018 25.2638 167.017 25.2652C167.015 25.2666 167.013 25.2676 167.012 25.2681C167.01 25.2687 167.008 25.2687 167.006 25.2683H166.142C166.142 25.2683 166.131 25.2683 166.131 25.2544V22.3235C166.131 22.3235 166.136 22.3096 166.142 22.3096Z" fill="white"/>
<path d="M171.701 22.3096H174.648C174.787 22.314 174.922 22.3489 175.046 22.4119C175.17 22.4748 175.278 22.5643 175.363 22.6739C175.452 22.7996 175.502 22.949 175.507 23.1032V25.2544C175.507 25.2544 175.507 25.2683 175.495 25.2683H174.629C174.627 25.2687 174.625 25.2687 174.624 25.2681C174.622 25.2676 174.62 25.2666 174.619 25.2652C174.617 25.2638 174.616 25.2621 174.616 25.2602C174.615 25.2583 174.615 25.2563 174.615 25.2544V23.5418C174.627 23.4337 174.603 23.3247 174.546 23.2322C174.488 23.1397 174.402 23.0689 174.3 23.0313C174.255 23.02 174.209 23.0138 174.163 23.0127H172.576V25.2544V25.2683H171.712C171.712 25.2683 171.712 25.2683 171.712 25.2544V22.3235C171.712 22.3235 171.694 22.3096 171.701 22.3096Z" fill="white"/>
<path d="M181.046 22.3096H183.986C183.99 22.3096 183.993 22.311 183.996 22.3136C183.999 22.3163 184 22.3198 184 22.3235V22.9988C184.001 23.0007 184.001 23.0027 184 23.0046C184 23.0065 183.998 23.0082 183.997 23.0096C183.996 23.011 183.994 23.012 183.992 23.0126C183.99 23.0131 183.988 23.0131 183.986 23.0127H181.524C181.422 23.015 181.323 23.051 181.243 23.1152C181.164 23.1794 181.107 23.2682 181.083 23.3677C181.076 23.4037 181.071 23.4401 181.069 23.4768V24.0732C181.063 24.1733 181.09 24.2726 181.145 24.3562C181.2 24.4399 181.281 24.5034 181.376 24.5373C181.423 24.5569 181.473 24.5664 181.524 24.5652H183.121V24.0221V24.0082H183.986C183.986 24.0082 184 24.0082 184 24.0221V25.252C184.001 25.254 184.001 25.256 184 25.2579C184 25.2598 183.998 25.2615 183.997 25.2629C183.996 25.2643 183.994 25.2653 183.992 25.2658C183.99 25.2664 183.988 25.2664 183.986 25.266H181.065C180.932 25.2646 180.801 25.235 180.681 25.1789C180.561 25.1229 180.455 25.0418 180.369 24.9411C180.254 24.8063 180.19 24.6355 180.188 24.4584V23.1102C180.191 22.9576 180.239 22.8095 180.325 22.6835C180.411 22.5575 180.532 22.4591 180.673 22.4001C180.79 22.3449 180.917 22.3141 181.046 22.3096Z" fill="white"/>
<path d="M23.5133 6.00511e-06C21.2707 -0.00207815 19.0609 0.538369 17.0724 1.57524C15.0839 2.61211 13.3758 4.11462 12.0938 5.95458H17.5564C19.0348 4.84996 20.7915 4.17848 22.6298 4.01527C24.4681 3.85205 26.3155 4.20353 27.9655 5.03039C29.6154 5.85725 31.0027 7.12687 31.9723 8.69722C32.9418 10.2676 33.4553 12.0767 33.4553 13.9222C33.4553 15.7678 32.9418 17.5769 31.9723 19.1473C31.0027 20.7176 29.6154 21.9872 27.9655 22.8141C26.3155 23.641 24.4681 23.9924 22.6298 23.8292C20.7915 23.666 19.0348 22.9945 17.5564 21.8899H12.0938C13.4634 23.8531 15.316 25.4301 17.4729 26.4685C19.6297 27.5069 22.0178 27.9717 24.4066 27.8181C26.7955 27.6644 29.1043 26.8975 31.1103 25.5913C33.1163 24.2851 34.7517 22.4838 35.8585 20.3613C36.9653 18.2387 37.5062 15.8667 37.429 13.4742C37.3518 11.0816 36.659 8.74944 35.4176 6.70272C34.1762 4.656 32.428 2.96391 30.342 1.78982C28.2559 0.615721 25.9024 -0.000721713 23.5086 6.00511e-06H23.5133Z" fill="#EC1C24"/>
<path d="M16.0878 8.81833C16.0878 9.12446 15.997 9.42371 15.827 9.67825C15.6569 9.93279 15.4152 10.1312 15.1323 10.2483C14.8495 10.3655 14.5383 10.3961 14.238 10.3364C13.9378 10.2767 13.662 10.1293 13.4455 9.9128C13.2291 9.69633 13.0817 9.42054 13.0219 9.12029C12.9622 8.82004 12.9929 8.50883 13.11 8.226C13.2272 7.94318 13.4255 7.70144 13.6801 7.53136C13.9346 7.36129 14.2339 7.27051 14.54 7.27051C14.7434 7.2702 14.9448 7.31003 15.1327 7.38771C15.3206 7.46539 15.4914 7.57938 15.6352 7.72317C15.7789 7.86696 15.8929 8.03771 15.9706 8.22564C16.0483 8.41357 16.0881 8.61498 16.0878 8.81833Z" fill="white"/>
<path d="M12.0646 8.73669C12.0806 8.99652 12.0192 9.25527 11.8882 9.4802C11.7572 9.70513 11.5623 9.88614 11.3284 10.0003C11.0944 10.1145 10.8319 10.1567 10.5739 10.1216C10.316 10.0865 10.0742 9.97569 9.87931 9.80316C9.68436 9.63064 9.54498 9.40417 9.47879 9.1524C9.4126 8.90063 9.42258 8.63489 9.50747 8.3888C9.59235 8.14271 9.74833 7.92732 9.95567 7.76991C10.163 7.61249 10.4124 7.52012 10.6722 7.50447C10.8446 7.49378 11.0174 7.5172 11.1807 7.57337C11.344 7.62954 11.4946 7.71737 11.6239 7.83182C11.7533 7.94627 11.8588 8.08511 11.9344 8.24038C12.01 8.39565 12.0542 8.5643 12.0646 8.73669Z" fill="white"/>
<path d="M8.5075 8.75818C8.51951 8.97203 8.46788 9.18464 8.35913 9.36916C8.25038 9.55368 8.0894 9.70184 7.8965 9.79493C7.7036 9.88801 7.48745 9.92185 7.27533 9.89218C7.06322 9.8625 6.86465 9.77063 6.70471 9.62817C6.54478 9.48572 6.43064 9.29906 6.37671 9.09178C6.32278 8.8845 6.33149 8.66589 6.40172 8.46355C6.47196 8.26121 6.60058 8.08422 6.77134 7.95493C6.9421 7.82564 7.14734 7.74985 7.36114 7.73713C7.64852 7.72065 7.9307 7.81894 8.14565 8.0104C8.3606 8.20185 8.49075 8.47082 8.5075 8.75818Z" fill="white"/>
<path d="M5.4146 8.75777C5.42487 8.92597 5.38501 9.09342 5.30007 9.23896C5.21513 9.38449 5.08892 9.50155 4.93743 9.57533C4.78593 9.64911 4.61595 9.67629 4.449 9.65343C4.28205 9.63057 4.12564 9.5587 3.99955 9.44691C3.87346 9.33512 3.78337 9.18844 3.74068 9.02543C3.69799 8.86242 3.70461 8.69041 3.75971 8.53117C3.81481 8.37193 3.91591 8.23261 4.05022 8.13085C4.18453 8.02908 4.34601 7.96945 4.51422 7.9595C4.73943 7.94617 4.96072 8.02274 5.12953 8.1724C5.29833 8.32207 5.40086 8.53259 5.4146 8.75777Z" fill="white"/>
<path d="M2.78488 8.78069C2.79244 8.903 2.76357 9.0248 2.70192 9.1307C2.64026 9.2366 2.54858 9.32184 2.43848 9.37564C2.32838 9.42944 2.2048 9.44938 2.08337 9.43295C1.96193 9.41651 1.8481 9.36444 1.75626 9.28331C1.66442 9.20218 1.5987 9.09564 1.56741 8.97716C1.53612 8.85868 1.54067 8.73358 1.58048 8.61768C1.62028 8.50179 1.69356 8.4003 1.79105 8.32605C1.88853 8.2518 2.00585 8.20813 2.12815 8.20055C2.20944 8.19521 2.29097 8.206 2.36806 8.23232C2.44515 8.25863 2.51627 8.29995 2.57731 8.35388C2.63836 8.4078 2.68813 8.47328 2.72375 8.54654C2.75938 8.61979 2.78015 8.69937 2.78488 8.78069Z" fill="white"/>
<path d="M0.771853 8.79475C0.775831 8.87068 0.757249 8.94609 0.718447 9.01148C0.679646 9.07687 0.622361 9.12931 0.553808 9.16221C0.485255 9.1951 0.408501 9.20697 0.333215 9.19632C0.257929 9.18567 0.187479 9.15298 0.130738 9.10236C0.0739976 9.05175 0.0335054 8.98547 0.014362 8.91189C-0.00478144 8.8383 -0.00171951 8.7607 0.023162 8.68885C0.0480435 8.617 0.0936314 8.55412 0.154183 8.50813C0.214735 8.46214 0.287543 8.4351 0.363434 8.43042C0.414226 8.42728 0.465136 8.43424 0.513223 8.4509C0.56131 8.46755 0.60562 8.49356 0.643595 8.52744C0.681571 8.56132 0.712458 8.60238 0.734472 8.64826C0.756486 8.69414 0.769191 8.74393 0.771853 8.79475Z" fill="white"/>
<path d="M20.5734 8.81796C20.5734 9.17009 20.469 9.5143 20.2733 9.80705C20.0776 10.0998 19.7995 10.3279 19.4741 10.4626C19.1488 10.5972 18.7908 10.6323 18.4455 10.5635C18.1001 10.4946 17.783 10.3249 17.5342 10.0757C17.2853 9.82655 17.116 9.50919 17.0476 9.16377C16.9792 8.81836 17.0148 8.46041 17.1498 8.13522C17.2849 7.81004 17.5134 7.53222 17.8064 7.33692C18.0994 7.14163 18.4437 7.03763 18.7959 7.03809C19.0295 7.03809 19.2608 7.08414 19.4766 7.17362C19.6925 7.26309 19.8885 7.39423 20.0536 7.55954C20.2187 7.72485 20.3496 7.92108 20.4388 8.13701C20.528 8.35294 20.5737 8.58433 20.5734 8.81796Z" fill="white"/>
<path d="M16.0878 13.9238C16.0878 14.2299 15.997 14.5292 15.827 14.7837C15.6569 15.0383 15.4152 15.2366 15.1323 15.3538C14.8495 15.4709 14.5383 15.5016 14.238 15.4419C13.9378 15.3821 13.662 15.2347 13.4455 15.0183C13.2291 14.8018 13.0817 14.526 13.0219 14.2258C12.9622 13.9255 12.9929 13.6143 13.11 13.3315C13.2272 13.0486 13.4255 12.8069 13.6801 12.6368C13.9346 12.4668 14.2339 12.376 14.54 12.376C14.7434 12.3757 14.9448 12.4155 15.1327 12.4932C15.3206 12.5709 15.4914 12.6849 15.6352 12.8286C15.7789 12.9724 15.8929 13.1432 15.9706 13.3311C16.0483 13.519 16.0881 13.7204 16.0878 13.9238Z" fill="white"/>
<path d="M12.0646 13.8422C12.0806 14.102 12.0192 14.3607 11.8882 14.5857C11.7572 14.8106 11.5623 14.9916 11.3284 15.1058C11.0944 15.22 10.8319 15.2622 10.5739 15.2271C10.316 15.192 10.0742 15.0812 9.87931 14.9086C9.68436 14.7361 9.54498 14.5096 9.47879 14.2579C9.4126 14.0061 9.42258 13.7404 9.50747 13.4943C9.59235 13.2482 9.74833 13.0328 9.95567 12.8754C10.163 12.718 10.4124 12.6256 10.6722 12.6099C10.8446 12.5993 11.0174 12.6227 11.1807 12.6788C11.344 12.735 11.4946 12.8228 11.6239 12.9373C11.7533 13.0517 11.8588 13.1906 11.9344 13.3458C12.01 13.5011 12.0542 13.6698 12.0646 13.8422Z" fill="white"/>
<path d="M8.5075 13.8628C8.51951 14.0767 8.46788 14.2893 8.35913 14.4738C8.25038 14.6583 8.0894 14.8065 7.8965 14.8995C7.7036 14.9926 7.48745 15.0265 7.27533 14.9968C7.06322 14.9671 6.86465 14.8753 6.70471 14.7328C6.54478 14.5903 6.43064 14.4037 6.37671 14.1964C6.32278 13.9891 6.33149 13.7705 6.40172 13.5682C6.47196 13.3658 6.60058 13.1888 6.77134 13.0596C6.9421 12.9303 7.14734 12.8545 7.36114 12.8418C7.50351 12.8333 7.64615 12.853 7.78088 12.8998C7.91561 12.9465 8.03979 13.0194 8.14629 13.1143C8.25279 13.2092 8.33952 13.3241 8.4015 13.4525C8.46349 13.581 8.49951 13.7204 8.5075 13.8628Z" fill="white"/>
<path d="M5.41446 13.863C5.42519 14.0313 5.38574 14.1989 5.3011 14.3447C5.21646 14.4906 5.09045 14.608 4.93902 14.6821C4.78759 14.7562 4.61757 14.7838 4.45049 14.7612C4.28341 14.7386 4.12679 14.667 4.00047 14.5553C3.87415 14.4436 3.78382 14.297 3.74092 14.1339C3.69802 13.9709 3.70448 13.7988 3.75948 13.6394C3.81449 13.48 3.91556 13.3405 4.04989 13.2387C4.18423 13.1368 4.34578 13.0771 4.51408 13.0671C4.62548 13.0601 4.73714 13.0753 4.8427 13.1115C4.94825 13.1478 5.04562 13.2045 5.12924 13.2784C5.21286 13.3523 5.28109 13.442 5.33003 13.5423C5.37897 13.6426 5.40766 13.7516 5.41446 13.863Z" fill="white"/>
<path d="M2.78488 13.8841C2.79244 14.0064 2.76357 14.1282 2.70192 14.2341C2.64026 14.34 2.54858 14.4252 2.43848 14.479C2.32838 14.5328 2.2048 14.5528 2.08337 14.5363C1.96193 14.5199 1.8481 14.4678 1.75626 14.3867C1.66442 14.3056 1.5987 14.199 1.56741 14.0805C1.53612 13.9621 1.54067 13.837 1.58048 13.7211C1.62028 13.6052 1.69356 13.5037 1.79105 13.4294C1.88853 13.3552 2.00585 13.3115 2.12815 13.3039C2.20937 13.2989 2.29078 13.3099 2.36774 13.3363C2.44469 13.3628 2.51569 13.4041 2.57667 13.458C2.63766 13.5118 2.68743 13.5772 2.72315 13.6503C2.75888 13.7234 2.77985 13.8028 2.78488 13.8841Z" fill="white"/>
<path d="M0.773678 13.8978C0.778118 13.9738 0.75994 14.0494 0.721439 14.1151C0.682937 14.1807 0.62584 14.2335 0.557355 14.2668C0.48887 14.3 0.41207 14.3122 0.33665 14.3019C0.261231 14.2915 0.190576 14.259 0.133605 14.2085C0.0766343 14.158 0.0359033 14.0918 0.0165551 14.0181C-0.00279323 13.9445 0.000108922 13.8668 0.0248948 13.7948C0.0496806 13.7228 0.0952389 13.6598 0.155817 13.6137C0.216395 13.5676 0.289277 13.5405 0.365259 13.5358C0.467319 13.53 0.567505 13.5649 0.644001 13.6327C0.720497 13.7005 0.767106 13.7958 0.773678 13.8978Z" fill="white"/>
<path d="M20.5734 13.9234C20.5734 14.2756 20.469 14.6198 20.2733 14.9125C20.0776 15.2053 19.7995 15.4334 19.4741 15.568C19.1488 15.7027 18.7908 15.7378 18.4455 15.6689C18.1001 15.6001 17.783 15.4303 17.5342 15.1812C17.2853 14.932 17.116 14.6147 17.0476 14.2692C16.9792 13.9238 17.0148 13.5659 17.1498 13.2407C17.2849 12.9155 17.5134 12.6377 17.8064 12.4424C18.0994 12.2471 18.4437 12.1431 18.7959 12.1436C19.0295 12.1436 19.2608 12.1896 19.4766 12.2791C19.6925 12.3686 19.8885 12.4997 20.0536 12.665C20.2187 12.8303 20.3496 13.0265 20.4388 13.2425C20.528 13.4584 20.5737 13.6898 20.5734 13.9234Z" fill="white"/>
<path d="M25.5239 13.9231C25.5239 14.3211 25.4058 14.7102 25.1846 15.0411C24.9635 15.372 24.6491 15.6299 24.2813 15.7821C23.9136 15.9343 23.5089 15.974 23.1186 15.8962C22.7282 15.8183 22.3697 15.6265 22.0885 15.3449C21.8072 15.0633 21.6157 14.7046 21.5384 14.3142C21.461 13.9237 21.5012 13.5191 21.6538 13.1515C21.8065 12.7839 22.0647 12.4699 22.3959 12.2491C22.727 12.0283 23.1162 11.9107 23.5143 11.9111C23.7784 11.9111 24.0399 11.9632 24.2838 12.0643C24.5278 12.1655 24.7494 12.3137 24.9361 12.5006C25.1227 12.6874 25.2707 12.9092 25.3716 13.1533C25.4724 13.3974 25.5242 13.659 25.5239 13.9231Z" fill="white"/>
<path d="M16.0878 19.026C16.0883 19.3322 15.9979 19.6317 15.8281 19.8865C15.6583 20.1414 15.4167 20.3401 15.1339 20.4576C14.8512 20.5751 14.5399 20.6061 14.2395 20.5466C13.9391 20.4872 13.6631 20.34 13.4464 20.1236C13.2297 19.9072 13.082 19.6314 13.0221 19.3311C12.9622 19.0308 12.9927 18.7195 13.1098 18.4365C13.2269 18.1535 13.4253 17.9117 13.6798 17.7415C13.9344 17.5713 14.2338 17.4805 14.54 17.4805C14.7432 17.4802 14.9444 17.5199 15.1322 17.5974C15.3199 17.675 15.4906 17.7888 15.6343 17.9323C15.7781 18.0759 15.8921 18.2463 15.97 18.434C16.0478 18.6217 16.0878 18.8228 16.0878 19.026Z" fill="white"/>
<path d="M12.0646 18.9475C12.0806 19.2073 12.0192 19.4661 11.8882 19.691C11.7572 19.9159 11.5623 20.0969 11.3284 20.2111C11.0944 20.3253 10.8319 20.3675 10.5739 20.3324C10.316 20.2973 10.0742 20.1865 9.87931 20.014C9.68436 19.8414 9.54498 19.615 9.47879 19.3632C9.4126 19.1114 9.42258 18.8457 9.50747 18.5996C9.59235 18.3535 9.74833 18.1381 9.95567 17.9807C10.163 17.8233 10.4124 17.7309 10.6722 17.7153C11.0202 17.6943 11.3623 17.8123 11.6233 18.0433C11.8844 18.2744 12.0431 18.5996 12.0646 18.9475Z" fill="white"/>
<path d="M8.5075 18.9683C8.51951 19.1821 8.46788 19.3947 8.35913 19.5792C8.25038 19.7638 8.0894 19.9119 7.8965 20.005C7.7036 20.0981 7.48745 20.1319 7.27533 20.1023C7.06322 20.0726 6.86465 19.9807 6.70471 19.8383C6.54478 19.6958 6.43064 19.5092 6.37671 19.3019C6.32278 19.0946 6.33149 18.876 6.40172 18.6736C6.47196 18.4713 6.60058 18.2943 6.77134 18.165C6.9421 18.0357 7.14734 17.9599 7.36114 17.9472C7.50351 17.9388 7.64615 17.9585 7.78088 18.0052C7.91561 18.052 8.03979 18.1249 8.14629 18.2198C8.25279 18.3146 8.33952 18.4296 8.4015 18.558C8.46349 18.6865 8.49951 18.8259 8.5075 18.9683Z" fill="white"/>
<path d="M5.4146 18.9687C5.42487 19.1369 5.38501 19.3044 5.30007 19.4499C5.21513 19.5954 5.08892 19.7125 4.93743 19.7863C4.78593 19.86 4.61595 19.8872 4.449 19.8644C4.28205 19.8415 4.12564 19.7696 3.99955 19.6578C3.87346 19.5461 3.78337 19.3994 3.74068 19.2364C3.69799 19.0734 3.70461 18.9014 3.75971 18.7421C3.81481 18.5829 3.91591 18.4435 4.05022 18.3418C4.18453 18.24 4.34601 18.1804 4.51422 18.1704C4.73943 18.1571 4.96072 18.2337 5.12953 18.3833C5.29833 18.533 5.40086 18.7435 5.4146 18.9687Z" fill="white"/>
<path d="M2.78488 18.9895C2.79244 19.1118 2.76357 19.2336 2.70192 19.3395C2.64026 19.4454 2.54858 19.5307 2.43848 19.5845C2.32838 19.6383 2.2048 19.6582 2.08337 19.6418C1.96193 19.6254 1.8481 19.5733 1.75626 19.4921C1.66442 19.411 1.5987 19.3045 1.56741 19.186C1.53612 19.0675 1.54067 18.9424 1.58048 18.8265C1.62028 18.7106 1.69356 18.6091 1.79105 18.5349C1.88853 18.4606 2.00585 18.417 2.12815 18.4094C2.20937 18.4044 2.29078 18.4154 2.36774 18.4418C2.44469 18.4682 2.51569 18.5096 2.57667 18.5634C2.63766 18.6173 2.68743 18.6827 2.72315 18.7558C2.75888 18.8289 2.77985 18.9083 2.78488 18.9895Z" fill="white"/>
<path d="M0.773678 19.0032C0.778118 19.0792 0.75994 19.1549 0.721439 19.2205C0.682937 19.2862 0.62584 19.339 0.557355 19.3722C0.48887 19.4055 0.41207 19.4177 0.33665 19.4073C0.261231 19.397 0.190576 19.3645 0.133605 19.314C0.0766343 19.2635 0.0359033 19.1972 0.0165551 19.1236C-0.00279323 19.05 0.000108922 18.9723 0.0248948 18.9003C0.0496806 18.8283 0.0952389 18.7653 0.155817 18.7192C0.216395 18.6731 0.289277 18.6459 0.365259 18.6412C0.467319 18.6355 0.567505 18.6703 0.644001 18.7382C0.720497 18.806 0.767106 18.9012 0.773678 19.0032Z" fill="white"/>
<path d="M20.5734 19.0266C20.5739 19.3788 20.4698 19.7232 20.2744 20.0163C20.079 20.3094 19.8011 20.5378 19.4757 20.6728C19.1504 20.8078 18.7924 20.8433 18.4469 20.7747C18.1014 20.7061 17.784 20.5365 17.535 20.2875C17.2859 20.0384 17.1164 19.721 17.0478 19.3756C16.9792 19.0301 17.0146 18.672 17.1496 18.3467C17.2846 18.0214 17.5131 17.7434 17.8061 17.548C18.0992 17.3526 18.4436 17.2486 18.7959 17.249C19.2673 17.249 19.7194 17.4363 20.0528 17.7697C20.3861 18.103 20.5734 18.5551 20.5734 19.0266Z" fill="white"/>
</g>
<defs>
<clipPath id="clip0_99_299">
<rect width="184" height="27.8445" fill="white"/>
</clipPath>
</defs>
</svg>
